<svg id="visual" viewBox="0 0 960 300" width="960" height="300" xmlns="http://www.w3.org/2000/svg" xmlns:xlink="http://www.w3.org/1999/xlink" version="1.1"><rect x="0" y="0" width="960" height="300" fill="#111827"></rect><path d="M0 150L16 147.7C32 145.3 64 140.7 96 136C128 131.3 160 126.7 192 132.3C224 138 256 154 288 156.3C320 158.7 352 147.3 384 145.7C416 144 448 152 480 156.5C512 161 544 162 576 157.2C608 152.3 640 141.7 672 146.3C704 151 736 171 768 176.5C800 182 832 173 864 169C896 165 928 166 944 166.5L960 167L960 0L944 0C928 0 896 0 864 0C832 0 800 0 768 0C736 0 704 0 672 0C640 0 608 0 576 0C544 0 512 0 480 0C448 0 416 0 384 0C352 0 320 0 288 0C256 0 224 0 192 0C160 0 128 0 96 0C64 0 32 0 16 0L0 0Z" fill="#151d2c"></path><path d="M0 130L16 134.5C32 139 64 148 96 146C128 144 160 131 192 124C224 117 256 116 288 116.2C320 116.3 352 117.7 384 123.8C416 130 448 141 480 148.5C512 156 544 160 576 158.3C608 156.7 640 149.3 672 140.3C704 131.3 736 120.7 768 124.2C800 127.7 832 145.3 864 145C896 144.7 928 126.3 944 117.2L960 108L960 0L944 0C928 0 896 0 864 0C832 0 800 0 768 0C736 0 704 0 672 0C640 0 608 0 576 0C544 0 512 0 480 0C448 0 416 0 384 0C352 0 320 0 288 0C256 0 224 0 192 0C160 0 128 0 96 0C64 0 32 0 16 0L0 0Z" fill="#151e2d"></path><path d="M0 108L16 106.2C32 104.3 64 100.7 96 98C128 95.3 160 93.7 192 94.2C224 94.7 256 97.3 288 97C320 96.7 352 93.3 384 93.5C416 93.7 448 97.3 480 102C512 106.7 544 112.3 576 115C608 117.7 640 117.3 672 116.8C704 116.3 736 115.7 768 113.3C800 111 832 107 864 100.7C896 94.3 928 85.7 944 81.3L960 77L960 0L944 0C928 0 896 0 864 0C832 0 800 0 768 0C736 0 704 0 672 0C640 0 608 0 576 0C544 0 512 0 480 0C448 0 416 0 384 0C352 0 320 0 288 0C256 0 224 0 192 0C160 0 128 0 96 0C64 0 32 0 16 0L0 0Z" fill="#161f2d"></path><path d="M0 69L16 67.2C32 65.3 64 61.7 96 64.3C128 67 160 76 192 81.8C224 87.7 256 90.3 288 85.2C320 80 352 67 384 65.8C416 64.7 448 75.3 480 81.3C512 87.3 544 88.7 576 85.8C608 83 640 76 672 70.5C704 65 736 61 768 63.2C800 65.3 832 73.7 864 78.7C896 83.7 928 85.3 944 86.2L960 87L960 0L944 0C928 0 896 0 864 0C832 0 800 0 768 0C736 0 704 0 672 0C640 0 608 0 576 0C544 0 512 0 480 0C448 0 416 0 384 0C352 0 320 0 288 0C256 0 224 0 192 0C160 0 128 0 96 0C64 0 32 0 16 0L0 0Z" fill="#161f2d"></path><path d="M0 33L16 34.5C32 36 64 39 96 40.8C128 42.7 160 43.3 192 42.3C224 41.3 256 38.7 288 36.7C320 34.7 352 33.3 384 35.7C416 38 448 44 480 43.2C512 42.3 544 34.7 576 32.8C608 31 640 35 672 34C704 33 736 27 768 29C800 31 832 41 864 41.5C896 42 928 33 944 28.5L960 24L960 0L944 0C928 0 896 0 864 0C832 0 800 0 768 0C736 0 704 0 672 0C640 0 608 0 576 0C544 0 512 0 480 0C448 0 416 0 384 0C352 0 320 0 288 0C256 0 224 0 192 0C160 0 128 0 96 0C64 0 32 0 16 0L0 0Z" fill="#17202e"></path></svg>