<svg id="visual" viewBox="0 0 900 600" width="900" height="600" xmlns="http://www.w3.org/2000/svg" xmlns:xlink="http://www.w3.org/1999/xlink" version="1.1"><path d="M0 193L15 176C30 159 60 125 90 122C120 119 150 147 180 169C210 191 240 207 270 221C300 235 330 247 360 221C390 195 420 131 450 111C480 91 510 115 540 123C570 131 600 123 630 130C660 137 690 159 720 169C750 179 780 177 810 157C840 137 870 99 885 80L900 61L900 0L885 0C870 0 840 0 810 0C780 0 750 0 720 0C690 0 660 0 630 0C600 0 570 0 540 0C510 0 480 0 450 0C420 0 390 0 360 0C330 0 300 0 270 0C240 0 210 0 180 0C150 0 120 0 90 0C60 0 30 0 15 0L0 0Z" fill="#111827"></path><path d="M0 223L15 215C30 207 60 191 90 201C120 211 150 247 180 259C210 271 240 259 270 265C300 271 330 295 360 283C390 271 420 223 450 213C480 203 510 231 540 235C570 239 600 219 630 214C660 209 690 219 720 225C750 231 780 233 810 220C840 207 870 179 885 165L900 151L900 59L885 78C870 97 840 135 810 155C780 175 750 177 720 167C690 157 660 135 630 128C600 121 570 129 540 121C510 113 480 89 450 109C420 129 390 193 360 219C330 245 300 233 270 219C240 205 210 189 180 167C150 145 120 117 90 120C60 123 30 157 15 174L0 191Z" fill="#141b2a"></path><path d="M0 253L15 248C30 243 60 233 90 252C120 271 150 319 180 332C210 345 240 323 270 323C300 323 330 345 360 336C390 327 420 287 450 280C480 273 510 299 540 295C570 291 600 257 630 253C660 249 690 275 720 286C750 297 780 293 810 272C840 251 870 213 885 194L900 175L900 149L885 163C870 177 840 205 810 218C780 231 750 229 720 223C690 217 660 207 630 212C600 217 570 237 540 233C510 229 480 201 450 211C420 221 390 269 360 281C330 293 300 269 270 263C240 257 210 269 180 257C150 245 120 209 90 199C60 189 30 205 15 213L0 221Z" fill="#171e2d"></path><path d="M0 355L15 384C30 413 60 471 90 483C120 495 150 461 180 441C210 421 240 415 270 424C300 433 330 457 360 461C390 465 420 449 450 442C480 435 510 437 540 445C570 453 600 467 630 476C660 485 690 489 720 492C750 495 780 497 810 473C840 449 870 399 885 374L900 349L900 173L885 192C870 211 840 249 810 270C780 291 750 295 720 284C690 273 660 247 630 251C600 255 570 289 540 293C510 297 480 271 450 278C420 285 390 325 360 334C330 343 300 321 270 321C240 321 210 343 180 330C150 317 120 269 90 250C60 231 30 241 15 246L0 251Z" fill="#192231"></path><path d="M0 445L15 463C30 481 60 517 90 523C120 529 150 505 180 498C210 491 240 501 270 506C300 511 330 511 360 511C390 511 420 511 450 508C480 505 510 499 540 505C570 511 600 529 630 533C660 537 690 527 720 523C750 519 780 521 810 511C840 501 870 479 885 468L900 457L900 347L885 372C870 397 840 447 810 471C780 495 750 493 720 490C690 487 660 483 630 474C600 465 570 451 540 443C510 435 480 433 450 440C420 447 390 463 360 459C330 455 300 431 270 422C240 413 210 419 180 439C150 459 120 493 90 481C60 469 30 411 15 382L0 353Z" fill="#1c2534"></path><path d="M0 601L15 601C30 601 60 601 90 601C120 601 150 601 180 601C210 601 240 601 270 601C300 601 330 601 360 601C390 601 420 601 450 601C480 601 510 601 540 601C570 601 600 601 630 601C660 601 690 601 720 601C750 601 780 601 810 601C840 601 870 601 885 601L900 601L900 455L885 466C870 477 840 499 810 509C780 519 750 517 720 521C690 525 660 535 630 531C600 527 570 509 540 503C510 497 480 503 450 506C420 509 390 509 360 509C330 509 300 509 270 504C240 499 210 489 180 496C150 503 120 527 90 521C60 515 30 479 15 461L0 443Z" fill="#1f2937"></path></svg>